<svg xmlns="http://www.w3.org/2000/svg" width="32" height="32" viewBox="0 0 512 512"><path d="M0 206.254v99.491c0 20.663 16.752 37.418 37.414 37.418h69.667V168.844H37.414C16.752 168.844 0 185.591 0 206.254zM280.326 99.026a12.7 12.7 0 00-12.403-.494l-138.431 70.313v174.319l138.431 70.313a12.73 12.73 0 0012.403-.503 12.711 12.711 0 006.059-10.826V109.86a12.71 12.71 0 00-6.059-10.834zM408.522 162.666c-5.066-5.626-13.725-6.073-19.346-1.007-5.618 5.057-6.068 13.715-1.007 19.341 19.15 21.252 28.713 48.074 28.718 75-.005 26.936-9.567 53.756-28.713 74.998-5.066 5.618-4.615 14.285 1.002 19.351 5.617 5.056 14.28 4.61 19.341-1.007 23.842-26.451 35.775-59.944 35.765-93.342.009-33.39-11.924-66.893-35.76-93.334z" fill="#fff"/><path d="M458.88 117.33c-5.061-5.617-13.72-6.064-19.342-.998-5.622 5.056-6.073 13.715-1.007 19.341 30.722 34.092 46.068 77.156 46.077 120.326-.01 43.168-15.355 86.232-46.077 120.334-5.066 5.618-4.614 14.276 1.007 19.342 5.622 5.066 14.28 4.62 19.346-1.008C494.289 355.367 512.01 305.631 512 256c.01-49.632-17.711-99.369-53.12-138.67zM338.764 207.032c-5.622 5.057-6.073 13.725-1.007 19.342 7.594 8.43 11.362 18.98 11.371 29.626-.009 10.644-3.777 21.194-11.371 29.634-5.066 5.618-4.614 14.276 1.007 19.341 5.622 5.066 14.28 4.609 19.341-1.007A71.513 71.513 0 00376.52 256a71.491 71.491 0 00-18.415-47.96c-5.061-5.626-13.723-6.073-19.341-1.008z" fill="#fff"/></svg>