<svg xmlns="http://www.w3.org/2000/svg" width="32" height="32" viewBox="0 0 512 512"><path d="M0 204.883V307.12c0 21.22 17.212 38.437 38.442 38.437h71.582V166.446H38.442C17.212 166.446 0 183.653 0 204.883zM288.033 94.716a13.054 13.054 0 00-12.744-.517l-142.237 72.246v179.112l142.237 72.246a13.078 13.078 0 0012.744-.517 13.037 13.037 0 006.226-11.123V105.839c0-4.541-2.354-8.75-6.226-11.123zM453.117 253.467l54.386-54.394c5.996-5.996 5.996-15.713 0-21.709s-15.713-5.996-21.709 0l-54.386 54.385-54.394-54.385c-5.997-5.996-15.713-5.996-21.709 0-5.997 5.996-5.997 15.713 0 21.709l54.384 54.394-54.384 54.385c-5.997 5.996-5.997 15.713 0 21.709 5.996 5.996 15.712 5.996 21.709 0l54.394-54.386 54.386 54.386c5.996 5.996 15.713 5.996 21.709 0s5.996-15.713 0-21.709l-54.386-54.385z" fill="#fff"/></svg>