<svg xmlns="http://www.w3.org/2000/svg" width="512" height="512"><path d="M421.828 106.063H90.172v299.859h331.656V106.063zm-111.984 54.718c19.125 0 34.656 15.5 34.656 34.641s-15.531 34.641-34.656 34.641c-19.156 0-34.656-15.5-34.656-34.641s15.5-34.641 34.656-34.641zm89.969 203.907a13.437 13.437 0 0 1-11.875 7.156H129.469a13.418 13.418 0 0 1-11.766-6.938c-2.344-4.281-2.172-9.5.453-13.656l75.469-118.594a26.716 26.716 0 0 1 22.094-12.406 26.71 26.71 0 0 1 22.563 11.563l44.281 64.094 15.906-25.031a26.775 26.775 0 0 1 22.094-12.406c9-.172 17.438 4.156 22.563 11.547l55.828 80.828c2.843 4.093 3.155 9.405.859 13.843z" fill="#655c98"/><path d="M0 17.844V494.156h512V17.844H0zm464.297 428.594H47.703V65.563h416.594v380.875z" fill="#655c98"/></svg>