<svg xmlns="http://www.w3.org/2000/svg" viewBox="0 0 512 512"><path class="st0" d="M429.343 0H226.509v139.052c0 15.343-12.48 27.832-27.818 27.832H59.948V489.3c0 12.514 10.182 22.7 22.7 22.7h346.696c12.522 0 22.708-10.185 22.708-22.7V22.683C452.052 10.176 441.865 0 429.343 0zm-46.158 434.225H128.811v-24.304h254.374v24.304zm0-98.57H128.811v-24.303h254.374v24.303zm0-98.56H128.811v-24.304h254.374v24.304zm0-98.561H263.287v-24.303h119.898v24.303z" fill="#655c98"/><path class="st0" d="M200.587 123.45V6.865L66.499 140.958h116.577c12.6 0 17.511-4.907 17.511-17.508z" fill="#655c98"/></svg>